<?xml version="1.0" standalone="no"?>
<!DOCTYPE svg PUBLIC "-//W3C//DTD SVG 20010904//EN"
 "http://www.w3.org/TR/2001/REC-SVG-20010904/DTD/svg10.dtd">
<svg version="1.0" xmlns="http://www.w3.org/2000/svg"
 width="650.000000pt" height="650.000000pt" viewBox="0 0 650.000000 650.000000"
 preserveAspectRatio="xMidYMid meet">

<g transform="translate(0.000000,650.000000) scale(0.100000,-0.100000)"
fill="#000000" stroke="none">
<path d="M2985 5519 c-141 -20 -195 -31 -195 -40 0 -5 -17 -9 -37 -9 -20 0
-50 -4 -67 -9 -17 -5 -65 -19 -106 -31 -119 -35 -133 -40 -162 -53 -16 -6 -28
-15 -28 -19 0 -5 -10 -8 -21 -8 -22 0 -221 -93 -249 -116 -8 -6 -31 -20 -50
-31 -66 -35 -175 -111 -204 -142 -17 -17 -35 -31 -41 -31 -12 0 -367 -359
-405 -410 -14 -19 -40 -57 -57 -84 -42 -66 -54 -83 -75 -111 -10 -13 -18 -30
-18 -39 0 -9 -4 -16 -10 -16 -5 0 -10 -9 -10 -19 0 -11 -3 -21 -7 -23 -24 -10
-93 -143 -93 -178 0 -11 -4 -20 -8 -20 -9 0 -32 -59 -32 -83 0 -9 -4 -17 -8
-17 -11 0 -32 -61 -32 -92 0 -13 -3 -28 -7 -31 -16 -17 -53 -146 -53 -187 0
-26 -4 -50 -9 -55 -14 -16 -29 -102 -36 -210 -7 -93 -6 -102 15 -128 12 -15
38 -34 57 -42 40 -17 139 -20 148 -5 3 6 15 10 26 10 22 0 152 59 157 72 2 4
9 8 16 8 7 0 48 18 91 40 74 38 83 40 166 40 l89 0 0 -30 c0 -16 -4 -30 -10
-30 -5 0 -10 -9 -10 -20 0 -11 -4 -20 -9 -20 -5 0 -13 -9 -16 -20 -5 -16 -15
-20 -48 -20 -65 0 -211 -59 -225 -92 -2 -5 -12 -8 -23 -8 -10 0 -19 -4 -19
-10 0 -5 -6 -10 -13 -10 -18 0 -67 -24 -67 -32 0 -5 -9 -8 -19 -8 -11 0 -21
-5 -23 -11 -5 -14 -251 -14 -256 0 -4 13 -29 15 -36 3 -3 -5 -1 -47 4 -94 11
-110 25 -128 96 -128 54 0 154 27 154 42 0 4 9 8 20 8 35 0 168 69 178 93 2 4
12 7 23 7 10 0 19 5 19 10 0 6 30 10 71 10 l72 0 -7 -54 c-8 -75 -14 -86 -44
-86 -31 0 -92 -21 -92 -32 0 -4 -6 -8 -13 -8 -24 0 -167 -79 -167 -92 0 -5 -9
-8 -20 -8 -11 0 -20 -4 -20 -9 0 -10 -34 -18 -145 -33 -44 -6 -81 -12 -82 -13
-2 -1 4 -28 12 -60 25 -93 77 -124 162 -93 18 7 33 16 33 20 0 4 9 8 20 8 11
0 20 5 20 10 0 6 6 10 14 10 15 0 36 11 101 51 54 32 102 49 148 49 l38 0 -3
-62 -3 -63 -38 -6 c-45 -7 -80 -24 -127 -62 -19 -15 -40 -32 -47 -37 -7 -6
-16 -10 -22 -10 -13 0 -95 -43 -99 -52 -2 -5 -22 -8 -45 -8 -23 0 -47 -4 -54
-8 -13 -8 -6 -52 8 -52 5 0 9 -11 9 -25 0 -31 44 -75 75 -75 37 0 88 26 124
64 19 20 41 36 48 36 7 0 13 5 13 10 0 6 9 10 20 10 11 0 20 5 20 10 0 7 24
10 62 8 67 -3 64 -1 81 -83 6 -33 7 -32 -83 -65 -19 -7 -49 -26 -65 -42 -17
-15 -36 -28 -43 -28 -7 0 -12 -4 -12 -10 0 -5 -8 -10 -18 -10 -11 0 -27 -9
-37 -20 -10 -11 -31 -20 -48 -20 -26 0 -29 -3 -23 -25 10 -39 66 -115 85 -115
18 0 113 58 119 72 2 5 12 8 23 8 10 0 19 5 19 10 0 6 9 10 20 10 11 0 20 5
20 10 0 6 20 10 45 10 32 0 47 5 52 16 5 13 -6 63 -24 110 -4 11 5 14 38 14
73 0 176 46 223 99 11 11 24 21 31 21 6 0 24 13 39 29 21 22 30 43 33 78 3 26
13 67 24 90 10 24 19 46 19 51 0 5 9 27 20 50 11 22 20 46 20 52 0 17 23 51
61 89 19 20 41 48 49 63 7 15 21 36 29 45 33 36 46 86 44 175 -2 82 -18 158
-34 158 -4 0 -9 19 -12 43 -2 23 -10 74 -17 112 -22 122 -2 367 33 401 4 4 7
16 7 26 0 10 5 18 10 18 6 0 10 6 10 13 0 7 9 23 20 35 11 12 20 26 20 31 0
18 47 58 74 63 23 5 26 3 20 -16 -3 -11 -12 -31 -20 -43 -8 -12 -14 -31 -14
-43 0 -11 -4 -20 -10 -20 -5 0 -10 -9 -10 -20 0 -11 -4 -20 -10 -20 -5 0 -10
-9 -10 -20 0 -11 -4 -20 -9 -20 -13 0 -31 -104 -31 -177 0 -106 46 -348 69
-363 14 -9 24 -64 28 -163 5 -108 -4 -139 -66 -222 -111 -148 -160 -233 -197
-345 -21 -62 -25 -85 -19 -137 4 -35 11 -65 16 -68 5 -4 9 -19 9 -35 0 -27 23
-81 71 -170 l19 -35 -58 -58 c-31 -32 -82 -75 -112 -95 -30 -19 -64 -43 -75
-52 -27 -22 -119 -42 -175 -38 -39 3 -45 6 -48 28 -4 37 -24 83 -42 97 -18 15
-66 17 -75 3 -3 -5 -16 -10 -27 -10 -21 0 -90 -37 -96 -52 -2 -4 -12 -8 -22
-8 -29 0 -39 -21 -24 -56 21 -51 104 -109 104 -74 0 6 6 10 13 10 18 0 67 24
67 33 0 4 24 7 53 7 45 0 57 -4 79 -28 14 -15 28 -37 31 -50 4 -19 1 -22 -22
-22 -30 0 -93 -19 -101 -30 -3 -4 -14 -9 -25 -11 -37 -7 -29 -39 21 -90 35
-35 56 -49 76 -49 15 0 28 4 28 9 0 5 18 11 41 15 44 7 88 -15 110 -56 10 -19
7 -25 -20 -47 -32 -27 -42 -61 -18 -61 8 0 22 -10 33 -21 27 -30 135 -99 154
-99 11 0 22 15 30 43 7 23 22 51 32 63 10 11 18 24 18 28 0 5 23 42 50 83 28
41 50 78 50 83 0 4 7 13 15 20 38 31 75 157 75 254 l0 39 25 -27 c23 -25 25
-34 25 -126 0 -54 -3 -100 -7 -102 -10 -4 -53 -86 -53 -99 0 -12 -10 -24 -72
-93 -55 -60 -110 -204 -89 -230 14 -17 101 -59 108 -52 4 4 16 45 30 106 3 14
9 27 12 30 11 9 51 92 51 105 0 7 3 15 8 17 8 4 81 111 101 150 8 16 18 28 23
28 4 0 8 9 8 20 0 11 4 20 8 20 15 0 32 66 32 123 0 46 -7 69 -41 134 -23 43
-44 80 -49 83 -4 3 -14 19 -23 35 -8 17 -36 50 -61 75 -25 24 -46 50 -46 56 0
7 -4 14 -9 16 -4 2 -28 39 -52 83 l-43 80 0 127 0 128 30 32 c17 18 47 58 67
89 20 30 43 61 51 68 9 8 16 19 16 25 0 7 18 30 40 51 22 21 40 43 40 47 0 5
10 22 22 38 18 26 21 42 21 137 0 108 0 109 -43 198 -24 50 -48 92 -52 93 -4
2 -8 20 -8 40 0 20 -5 57 -11 82 -14 60 -13 265 2 304 6 17 17 45 25 61 7 17
17 42 23 57 6 15 26 50 46 77 19 28 35 57 35 65 0 8 9 18 20 21 11 3 20 13 20
21 0 8 4 14 9 14 5 0 16 3 24 6 11 4 13 -1 10 -20 -3 -14 -9 -26 -14 -26 -5 0
-9 -6 -9 -12 0 -7 -9 -24 -20 -38 -11 -14 -20 -35 -20 -47 0 -12 -4 -25 -10
-28 -5 -3 -10 -17 -10 -31 0 -13 -4 -24 -10 -24 -5 0 -10 -9 -10 -19 0 -11 -4
-22 -9 -25 -38 -24 -29 -314 13 -412 31 -70 60 -124 68 -124 5 0 8 -9 8 -20 0
-11 5 -20 10 -20 6 0 10 -9 10 -19 0 -11 5 -21 10 -23 6 -2 11 -48 11 -116 1
-110 0 -115 -35 -185 -20 -40 -52 -88 -72 -107 -49 -48 -114 -147 -114 -175 0
-7 -4 -15 -8 -17 -20 -8 -53 -104 -58 -172 -8 -90 14 -171 57 -212 16 -15 29
-33 29 -39 0 -6 32 -42 70 -80 39 -38 70 -75 70 -82 0 -7 5 -13 10 -13 6 0 10
-6 10 -14 0 -16 41 -98 54 -107 5 -4 9 -58 9 -120 1 -102 -2 -121 -26 -184
-16 -38 -38 -81 -50 -95 -37 -42 -67 -88 -67 -105 0 -8 -4 -15 -10 -15 -5 0
-10 -9 -10 -20 0 -11 -4 -20 -10 -20 -5 0 -10 -9 -10 -20 0 -11 -4 -20 -8 -20
-13 0 -52 -125 -52 -168 0 -42 11 -52 55 -52 13 0 27 -4 30 -10 3 -5 17 -10
30 -10 13 0 27 -4 30 -10 15 -25 22 -3 28 88 3 55 11 112 18 128 28 67 61 134
84 168 14 20 25 43 25 51 0 7 4 15 8 17 15 6 52 75 52 97 0 11 4 21 8 21 16 0
42 101 42 159 0 74 -14 122 -45 151 -14 13 -25 32 -25 41 0 10 -13 34 -30 52
-16 19 -30 39 -30 45 0 6 -4 12 -8 14 -10 3 -97 114 -127 161 -32 50 -45 118
-45 235 0 94 3 111 20 130 11 12 20 28 20 37 0 8 5 15 10 15 6 0 10 6 10 13 0
7 23 35 50 62 28 27 50 54 50 61 0 6 9 19 20 29 11 10 20 26 20 37 0 10 5 18
10 18 6 0 10 9 10 20 0 11 4 20 8 20 25 0 45 161 22 175 -5 3 -10 15 -10 26 0
10 -4 19 -10 19 -5 0 -10 11 -10 24 0 14 -4 28 -10 31 -5 3 -10 15 -10 26 0
10 -4 19 -10 19 -5 0 -10 11 -10 24 0 14 -4 28 -10 31 -5 3 -10 17 -10 30 0
13 -4 27 -10 30 -5 3 -10 17 -10 30 0 13 -4 27 -10 30 -5 3 -10 15 -10 25 0
10 -5 20 -11 22 -15 5 -18 426 -3 436 13 9 74 136 74 156 0 19 46 66 65 66 8
0 15 5 15 10 0 6 8 10 18 10 10 0 23 5 30 10 9 7 9 7 2 -2 -5 -7 -10 -20 -10
-30 0 -10 -4 -18 -10 -18 -5 0 -10 -6 -10 -13 0 -7 -9 -23 -20 -35 -11 -12
-20 -28 -20 -37 0 -8 -4 -15 -10 -15 -5 0 -10 -8 -10 -18 0 -10 -4 -22 -8 -27
-9 -11 -24 -59 -44 -143 -14 -59 1 -223 21 -230 6 -2 11 -15 11 -30 0 -31 21
-92 32 -92 4 0 8 -9 8 -20 0 -11 5 -20 10 -20 6 0 10 -9 10 -20 0 -11 5 -20
10 -20 6 0 10 -9 10 -20 0 -11 5 -20 10 -20 6 0 10 -8 10 -17 0 -24 41 -137
53 -144 5 -4 10 -64 11 -135 1 -118 -1 -132 -21 -165 -13 -20 -23 -43 -23 -50
0 -8 -22 -36 -50 -64 -27 -27 -49 -58 -50 -67 0 -9 -4 -20 -10 -23 -5 -3 -10
-14 -10 -23 0 -9 -9 -28 -20 -42 -11 -14 -20 -35 -20 -47 0 -13 -4 -23 -10
-23 -5 0 -10 -9 -10 -19 0 -11 -4 -23 -10 -26 -5 -3 -10 -33 -10 -65 0 -32 5
-62 10 -65 6 -3 10 -15 10 -26 0 -10 5 -19 10 -19 6 0 10 -9 10 -20 0 -11 5
-20 10 -20 6 0 10 -7 10 -16 0 -18 29 -57 108 -143 28 -32 52 -63 52 -69 0 -7
5 -12 10 -12 6 0 10 -7 10 -15 0 -8 8 -29 18 -47 31 -56 44 -136 39 -238 -4
-93 -14 -150 -26 -160 -20 -16 -91 -145 -91 -166 0 -7 -3 -14 -7 -16 -13 -5
-48 -60 -71 -110 -19 -41 -22 -65 -22 -167 0 -66 4 -122 8 -125 11 -7 155 -36
159 -33 1 2 -2 32 -8 68 -6 35 -8 105 -5 154 5 86 8 96 70 218 35 71 71 136
79 145 8 9 20 35 27 57 14 44 22 66 39 108 13 33 15 140 2 165 -5 9 -14 34
-21 55 -14 44 -97 171 -135 207 -31 28 -105 139 -126 188 -8 17 -17 32 -21 32
-12 0 -9 133 3 171 7 19 34 67 60 107 27 41 49 80 49 88 0 8 5 14 10 14 6 0
10 6 10 14 0 7 7 19 15 26 15 13 85 151 85 169 0 13 47 23 73 16 24 -7 62 -22
89 -36 41 -21 178 -5 198 23 3 4 29 10 57 14 47 6 54 4 75 -19 36 -39 48 -55
48 -65 0 -18 30 -69 55 -92 14 -13 25 -29 25 -35 0 -6 14 -24 30 -40 17 -16
30 -32 30 -36 0 -5 14 -28 30 -52 17 -25 30 -50 30 -56 0 -6 5 -11 11 -11 20
0 1 -243 -20 -260 -4 -3 -23 -30 -43 -60 -20 -30 -57 -75 -83 -100 -103 -99
-165 -232 -165 -354 0 -53 5 -77 22 -105 12 -20 26 -37 30 -39 4 -2 8 -12 8
-23 0 -10 5 -19 10 -19 6 0 10 -9 10 -20 0 -11 5 -20 10 -20 6 0 10 -9 10 -20
0 -11 5 -20 10 -20 6 0 10 -6 10 -13 0 -18 24 -67 33 -67 4 0 7 -9 7 -20 0
-11 5 -20 10 -20 6 0 10 -8 10 -17 0 -24 23 -83 32 -83 4 0 8 -11 8 -24 0 -14
5 -28 10 -31 6 -4 10 -57 10 -125 0 -68 -4 -121 -10 -125 -22 -13 -8 -26 23
-21 17 3 53 8 80 11 l47 6 0 125 c0 120 -1 128 -32 192 -33 69 -67 124 -80
130 -5 2 -8 12 -8 23 0 10 -4 19 -10 19 -5 0 -10 6 -10 14 0 15 -61 138 -73
147 -9 7 -3 238 8 287 4 17 11 32 16 32 5 0 9 5 9 11 0 14 66 114 109 166 67
79 91 111 91 120 0 5 8 18 18 29 61 67 58 192 -9 344 -8 16 -17 30 -21 30 -5
0 -8 7 -8 16 0 9 -12 32 -27 50 -27 33 -101 123 -126 154 -15 18 -15 289 0
299 12 7 53 120 53 144 0 9 5 17 10 17 6 0 10 5 10 12 0 6 8 21 18 32 10 12
25 37 32 56 7 19 19 49 26 66 21 49 44 169 44 232 -1 81 -33 222 -52 222 -4 0
-8 11 -8 25 0 13 -13 40 -30 58 -16 19 -30 40 -30 46 0 6 -4 11 -10 11 -5 0
-10 8 -10 18 0 10 -6 24 -12 31 -10 10 -7 10 17 -1 17 -7 32 -15 35 -18 3 -3
14 -10 25 -16 11 -6 24 -20 30 -32 5 -12 13 -22 17 -22 5 0 8 -8 8 -19 0 -10
6 -24 14 -30 7 -6 21 -33 31 -59 10 -26 23 -50 28 -54 7 -4 11 -67 11 -165 0
-143 -3 -167 -28 -258 -15 -55 -30 -111 -33 -125 -4 -14 -9 -27 -13 -30 -3 -3
-25 -44 -48 -92 -38 -78 -42 -93 -42 -161 0 -42 5 -79 10 -82 6 -3 10 -17 10
-30 0 -13 5 -27 10 -30 6 -3 10 -13 10 -21 0 -8 13 -29 30 -47 16 -18 30 -38
30 -44 0 -7 5 -13 10 -13 6 0 10 -8 10 -18 0 -10 15 -32 33 -50 18 -17 46 -58
62 -89 17 -32 34 -61 39 -64 13 -10 11 -272 -3 -277 -6 -2 -11 -12 -11 -23 0
-10 -4 -19 -10 -19 -5 0 -10 -9 -10 -20 0 -11 -4 -20 -10 -20 -5 0 -10 -6 -10
-13 0 -7 -27 -39 -60 -72 -33 -33 -60 -64 -60 -70 0 -7 -11 -22 -25 -35 -27
-26 -55 -74 -55 -97 0 -7 -4 -13 -10 -13 -5 0 -10 -9 -10 -19 0 -11 -4 -23
-10 -26 -5 -3 -10 -37 -10 -75 0 -38 5 -72 10 -75 6 -3 10 -17 10 -30 0 -13 5
-27 10 -30 6 -3 10 -17 10 -30 0 -13 5 -27 10 -30 6 -3 10 -17 10 -30 0 -13 5
-27 10 -30 6 -3 10 -15 10 -26 0 -10 5 -19 10 -19 6 0 10 -7 10 -15 0 -8 11
-31 25 -51 32 -47 69 -127 85 -184 8 -25 17 -49 22 -55 4 -5 8 -39 8 -77 l0
-68 33 7 c17 3 36 10 41 14 6 5 16 9 24 9 20 0 62 50 62 74 0 27 -42 146 -52
146 -4 0 -8 9 -8 20 0 11 -4 20 -10 20 -5 0 -10 8 -10 18 -1 9 -23 40 -50 67
-28 28 -50 58 -50 67 0 9 -4 20 -10 23 -5 3 -10 17 -10 30 0 13 -10 45 -21 72
-26 59 -31 184 -10 258 15 51 53 127 77 156 8 8 14 20 14 25 0 5 27 36 59 68
33 33 65 72 72 88 6 15 15 28 20 28 5 0 9 9 9 19 0 11 5 23 10 26 6 3 10 16
10 29 0 12 6 28 12 34 27 27 6 232 -24 232 -4 0 -8 9 -8 20 0 11 -4 20 -10 20
-5 0 -10 9 -10 20 0 11 -4 20 -10 20 -5 0 -10 7 -10 14 0 21 -51 94 -94 136
-20 19 -52 67 -72 106 -35 71 -35 73 -31 175 4 100 13 159 26 169 25 20 71
112 71 141 0 11 4 19 8 19 10 0 27 49 42 120 20 93 7 246 -23 276 -4 4 -7 22
-7 40 0 18 -4 36 -10 39 -5 3 -10 15 -10 26 0 10 -4 19 -10 19 -5 0 -10 9 -10
20 0 11 -4 20 -10 20 -5 0 -14 19 -20 43 -6 23 -15 50 -21 60 -13 24 -6 32 11
12 7 -8 19 -15 26 -15 7 0 11 -6 8 -14 -3 -8 3 -16 16 -19 12 -3 24 -15 27
-26 3 -12 9 -21 14 -21 5 0 9 -7 9 -15 0 -16 39 -77 53 -83 4 -2 7 -12 7 -22
0 -22 21 -72 33 -81 5 -3 9 -69 10 -145 2 -175 -11 -238 -79 -381 -60 -126
-74 -193 -55 -257 5 -17 15 -50 22 -73 8 -28 30 -60 70 -99 33 -32 59 -62 59
-66 0 -11 56 -92 79 -112 12 -11 21 -25 21 -33 0 -7 5 -13 10 -13 6 0 10 -9
10 -19 0 -11 5 -21 12 -23 9 -3 12 -38 13 -119 0 -113 -14 -186 -41 -219 -7
-8 -38 -53 -69 -100 -32 -47 -74 -103 -95 -125 -40 -44 -80 -105 -80 -125 0
-6 -9 -23 -20 -37 -15 -19 -20 -41 -20 -86 0 -60 17 -127 32 -127 4 0 8 -7 8
-16 0 -8 13 -29 30 -47 16 -18 30 -38 30 -44 0 -7 5 -13 10 -13 6 0 10 -8 10
-17 0 -9 6 -24 14 -32 25 -28 101 -184 120 -246 11 -33 20 -61 21 -63 5 -6 94
39 105 53 22 26 -27 171 -70 210 -12 11 -38 45 -58 75 -20 30 -40 57 -44 58
-5 2 -8 12 -8 23 0 10 -4 19 -9 19 -11 0 -20 52 -27 155 -6 75 -4 82 19 107
25 27 25 27 31 5 3 -12 6 -43 6 -69 0 -26 5 -50 10 -53 6 -3 10 -19 10 -34 0
-16 6 -42 13 -58 15 -34 168 -267 179 -271 5 -2 8 -12 8 -23 0 -10 5 -19 10
-19 6 0 10 -13 10 -29 0 -17 4 -33 10 -36 11 -7 135 72 164 104 11 11 25 21
33 21 24 0 14 38 -16 59 -36 26 -32 52 15 87 26 21 39 24 68 18 20 -3 39 -10
42 -15 3 -5 17 -9 32 -9 18 0 42 16 79 52 43 42 50 55 42 70 -5 10 -18 18 -29
18 -10 0 -22 4 -25 10 -3 5 -17 10 -30 10 -13 0 -27 5 -30 10 -3 6 -17 10 -31
10 -30 0 -30 11 1 60 23 37 29 40 70 40 26 0 59 -8 80 -20 20 -11 42 -20 50
-20 8 0 15 -4 15 -10 0 -42 97 38 106 87 6 28 3 34 -17 42 -13 5 -40 20 -59
33 -54 37 -93 50 -141 46 -42 -3 -44 -5 -47 -36 -2 -19 -11 -48 -21 -65 -16
-30 -22 -32 -76 -35 -45 -2 -69 2 -104 19 -86 43 -156 92 -222 157 l-67 64 49
97 c52 102 88 236 69 255 -5 5 -10 25 -10 42 0 18 -4 36 -10 39 -5 3 -10 15
-10 26 0 10 -4 19 -10 19 -5 0 -10 11 -10 24 0 14 -4 28 -10 31 -5 3 -10 15
-10 26 0 10 -4 19 -10 19 -5 0 -10 6 -10 14 0 15 -78 136 -110 171 -10 11 -31
45 -46 75 -16 30 -32 57 -36 58 -12 5 -10 220 2 227 6 3 10 16 10 29 0 12 4
26 8 32 5 5 13 27 19 49 7 22 19 65 28 95 23 76 32 259 15 313 -8 23 -17 46
-22 51 -4 6 -8 20 -8 32 0 13 -4 26 -10 29 -5 3 -10 15 -10 26 0 10 -4 19 -10
19 -5 0 -10 10 -10 23 0 12 -9 33 -20 47 -27 35 -26 60 3 53 26 -7 97 -72 97
-90 0 -7 5 -13 10 -13 6 0 10 -7 10 -15 0 -8 8 -29 19 -47 35 -64 55 -159 59
-287 2 -79 -1 -128 -7 -134 -6 -6 -11 -30 -11 -53 0 -23 -4 -44 -9 -46 -6 -1
-15 -25 -22 -53 -6 -27 -16 -59 -21 -71 -11 -25 -5 -163 9 -216 6 -20 24 -56
41 -80 17 -23 48 -68 69 -98 21 -30 41 -56 45 -58 5 -2 8 -10 8 -17 0 -13 40
-96 51 -105 7 -6 17 -44 30 -125 11 -59 47 -115 74 -115 7 0 20 -10 31 -21 47
-53 150 -99 222 -99 41 0 42 -1 36 -27 -3 -16 -10 -40 -16 -55 -16 -44 -5 -58
47 -58 25 0 45 -4 45 -10 0 -5 9 -10 20 -10 11 0 20 -4 20 -10 0 -5 9 -10 19
-10 11 0 21 -3 23 -8 6 -14 101 -72 119 -72 21 0 79 82 79 113 0 15 -10 26
-32 36 -18 8 -64 35 -103 60 -88 57 -108 68 -154 82 -35 10 -37 13 -33 47 2
21 8 47 14 60 24 48 151 18 229 -54 14 -13 30 -24 36 -24 6 0 16 -7 23 -16 8
-8 29 -22 47 -29 43 -18 65 -6 82 44 7 20 20 51 28 70 19 41 8 51 -54 51 -24
0 -43 5 -43 10 0 6 -9 10 -20 10 -11 0 -20 5 -20 10 0 6 -9 10 -20 10 -11 0
-20 5 -20 10 0 6 -9 10 -20 10 -11 0 -20 5 -20 10 0 6 -6 10 -13 10 -8 0 -24
12 -38 26 -25 26 -97 64 -123 64 -39 0 -46 11 -46 71 l0 59 38 0 c36 0 105
-19 118 -33 4 -4 15 -7 25 -7 9 0 19 -3 21 -7 12 -29 184 -113 230 -113 44 0
83 35 98 89 15 56 9 67 -37 75 -21 4 -54 9 -73 13 -19 3 -37 8 -40 12 -9 11
-60 31 -80 31 -11 0 -20 4 -20 8 0 5 -10 14 -22 21 -13 6 -36 20 -53 30 -16
11 -38 20 -47 20 -10 1 -18 6 -18 11 0 6 -9 10 -20 10 -11 0 -20 4 -20 8 0 11
-60 32 -91 32 -30 0 -49 37 -49 98 l0 44 58 -5 c77 -7 122 -17 122 -28 0 -5 9
-9 19 -9 11 0 21 -3 23 -7 6 -16 64 -50 103 -63 22 -7 48 -16 57 -21 10 -5 26
-9 37 -9 11 0 21 -5 23 -12 3 -7 32 -14 72 -16 91 -6 104 8 116 125 5 47 7 90
4 95 -7 11 -32 10 -36 -2 -4 -13 -248 -15 -257 -3 -10 13 -50 33 -66 33 -8 0
-15 5 -15 10 0 6 -9 10 -20 10 -11 0 -20 5 -20 10 0 6 -9 10 -20 10 -11 0 -20
5 -20 10 0 6 -5 10 -12 10 -6 0 -21 8 -32 19 -29 26 -134 61 -183 61 -33 0
-43 4 -48 20 -3 11 -11 20 -16 20 -5 0 -9 9 -9 20 0 11 -4 20 -8 20 -12 0 -10
44 2 52 31 22 234 -4 251 -32 9 -15 232 -120 253 -120 12 0 24 -4 27 -10 9
-15 108 -12 148 5 19 8 45 27 57 42 21 26 22 35 16 127 -8 108 -42 295 -57
311 -5 5 -9 23 -9 39 0 38 -40 166 -51 166 -5 0 -9 9 -9 20 0 11 -4 28 -9 38
-5 9 -15 36 -22 60 -7 23 -16 42 -21 42 -4 0 -8 9 -8 20 0 22 -77 173 -91 178
-5 2 -9 12 -9 23 0 10 -4 19 -10 19 -5 0 -10 6 -10 14 0 16 -112 187 -162 248
-55 66 -372 390 -389 397 -15 6 -52 34 -124 94 -18 15 -40 27 -48 27 -8 0 -17
3 -19 8 -11 24 -311 192 -345 192 -5 0 -28 9 -51 20 -22 11 -47 20 -55 20 -7
0 -17 4 -22 9 -21 18 -208 71 -255 71 -16 0 -32 5 -35 10 -3 6 -30 10 -59 10
-28 0 -56 4 -62 9 -30 27 -469 42 -619 20z m297 -189 c4 0 8 -9 8 -20 0 -11 5
-20 10 -20 6 0 10 -9 10 -20 0 -20 20 -72 31 -80 4 -3 9 -18 11 -35 4 -39 22
-43 185 -44 72 -1 134 -4 136 -8 8 -14 -12 -53 -26 -53 -7 0 -53 -40 -101 -90
-73 -74 -87 -93 -81 -112 18 -69 29 -98 37 -98 4 0 8 -8 8 -17 0 -9 5 -32 12
-50 9 -25 18 -33 35 -33 22 0 84 36 91 53 2 4 9 7 15 7 7 0 48 18 92 39 140
70 283 108 300 81 3 -5 -6 -34 -20 -65 -14 -31 -25 -64 -25 -73 0 -10 -4 -22
-8 -27 -15 -17 -35 -92 -28 -104 10 -16 30 -14 79 8 107 48 259 82 272 61 10
-16 -18 -70 -55 -105 -32 -30 -60 -78 -60 -102 0 -7 -4 -13 -10 -13 -5 0 -10
-9 -10 -19 0 -11 -4 -23 -10 -26 -5 -3 -10 -17 -10 -31 0 -13 -4 -24 -8 -24
-15 0 -32 -66 -32 -123 l0 -57 -39 0 c-22 0 -41 4 -43 8 -5 12 -95 52 -118 52
-11 0 -20 4 -20 8 0 11 -121 52 -153 52 -14 0 -28 4 -31 9 -3 5 -20 11 -38 14
-18 3 -60 12 -93 21 -147 37 -358 45 -552 21 -126 -16 -335 -65 -387 -90 -16
-8 -34 -15 -40 -15 -6 0 -47 -18 -91 -40 -108 -54 -155 -52 -155 8 0 30 -20
103 -32 117 -4 5 -8 15 -8 22 0 29 -72 162 -92 171 -5 2 -8 11 -8 19 0 8 -13
31 -30 50 -16 18 -30 43 -30 53 0 18 7 20 59 20 33 0 63 -4 66 -10 3 -5 21
-10 40 -10 18 0 35 -4 37 -8 5 -12 88 -48 126 -55 31 -6 32 -5 32 25 0 36 -20
98 -32 98 -4 0 -8 9 -8 20 0 11 -4 20 -10 20 -5 0 -10 7 -10 16 0 9 -9 27 -20
41 -24 31 -26 59 -3 67 20 8 123 -3 123 -13 0 -3 12 -11 28 -18 118 -51 216
-104 292 -158 28 -20 55 -33 59 -30 5 3 17 31 26 63 9 31 21 65 26 74 5 10 9
26 9 37 0 11 4 21 9 23 5 2 13 16 16 31 7 25 0 35 -71 103 -44 41 -97 90 -118
110 -32 28 -37 37 -25 45 8 5 72 9 142 9 148 0 173 10 195 76 8 22 22 58 33
81 10 24 19 47 19 52 0 5 8 23 18 40 l17 31 14 -30 c8 -17 18 -30 23 -30z
m-1794 -904 c43 -28 77 -63 117 -126 17 -25 33 -47 36 -50 3 -3 9 -16 12 -30
3 -14 12 -50 21 -80 8 -30 18 -67 21 -82 5 -26 35 -41 35 -18 0 6 9 10 20 10
11 0 20 5 20 10 0 6 8 10 17 10 24 0 137 41 144 52 9 14 263 14 280 0 72 -58
84 -71 63 -72 -11 0 -33 -13 -49 -30 -16 -16 -34 -30 -40 -30 -6 0 -63 -54
-126 -119 -121 -126 -169 -182 -169 -199 0 -23 -38 -37 -114 -44 -104 -9 -155
-18 -162 -29 -3 -5 -14 -9 -25 -9 -10 0 -27 -4 -37 -9 -9 -5 -36 -15 -59 -22
-24 -7 -43 -16 -43 -21 0 -4 -9 -8 -20 -8 -11 0 -20 -4 -20 -10 0 -5 -9 -10
-20 -10 -11 0 -42 -10 -68 -22 -65 -31 -228 -34 -261 -4 -22 20 -20 57 5 86
30 36 144 213 144 225 0 7 3 15 8 17 13 6 52 67 52 83 0 8 5 15 10 15 6 0 10
9 10 20 0 11 5 20 10 20 6 0 10 9 10 20 0 11 3 20 8 20 4 0 16 19 26 43 42 97
49 132 51 267 2 74 3 138 4 143 2 15 53 6 89 -17z m3618 -105 c-1 -92 3 -133
12 -142 6 -7 12 -28 12 -45 0 -18 5 -36 10 -39 6 -3 10 -15 10 -26 0 -22 40
-112 52 -117 4 -2 8 -12 8 -23 0 -10 5 -19 10 -19 6 0 10 -8 11 -17 0 -10 16
-38 35 -63 18 -25 38 -54 43 -65 5 -12 16 -27 25 -34 9 -7 16 -20 16 -27 0 -8
5 -14 10 -14 6 0 10 -6 10 -14 0 -8 20 -45 45 -82 25 -36 45 -72 45 -79 0 -47
-131 -71 -232 -41 -31 9 -65 16 -76 16 -11 0 -22 4 -24 8 -6 15 -75 52 -96 52
-11 0 -24 5 -27 10 -3 6 -17 10 -30 10 -13 0 -27 5 -30 10 -3 6 -17 10 -31 10
-13 0 -24 4 -24 8 0 14 -96 32 -165 32 -70 0 -95 6 -95 24 0 7 -18 30 -40 51
-22 21 -40 44 -40 49 0 13 -241 256 -254 256 -4 0 -23 13 -41 29 -31 27 -32
30 -17 44 43 38 95 50 207 49 60 0 118 -5 130 -10 75 -36 117 -52 135 -52 11
0 20 -4 20 -10 0 -5 9 -10 19 -10 11 0 21 -5 23 -12 2 -6 12 -9 21 -5 13 5 17
19 17 61 0 30 5 58 10 61 6 3 10 17 10 31 0 13 5 24 10 24 6 0 10 9 10 19 0
11 3 21 8 23 10 4 52 65 52 76 0 10 76 83 110 105 14 9 39 16 56 16 l32 1 -2
-129z m-1746 -66 c127 -21 150 -26 150 -36 0 -5 9 -9 20 -9 11 0 20 -4 20 -10
0 -5 5 -10 12 -10 16 0 108 -91 108 -106 0 -7 4 -14 9 -16 5 -1 12 -26 16 -54
l6 -51 -120 5 c-87 3 -129 1 -153 -9 -40 -16 -98 -71 -98 -92 0 -9 -4 -19 -10
-22 -5 -3 -10 -42 -10 -85 0 -59 4 -83 16 -95 12 -12 19 -13 30 -4 8 6 14 17
14 24 0 8 15 18 33 24 26 9 43 8 76 -4 55 -19 79 -19 126 1 37 15 39 15 63
-10 39 -38 41 -113 7 -223 -29 -94 -38 -117 -57 -148 -7 -11 -32 -49 -55 -85
-49 -77 -99 -127 -168 -166 -47 -27 -56 -29 -166 -29 -135 1 -131 -1 -258 126
-82 82 -101 104 -101 117 0 14 -25 62 -32 62 -5 0 -8 9 -8 20 0 20 -20 71 -31
80 -9 7 -20 72 -25 155 -5 65 -4 72 20 94 16 15 35 23 53 21 15 -1 76 -3 134
-3 68 -1 111 -6 121 -14 12 -11 18 -10 30 5 22 24 32 80 19 96 -6 7 -13 33
-15 56 -4 44 -40 90 -70 90 -8 0 -18 5 -21 11 -4 6 -45 10 -103 9 -54 -1 -103
-1 -109 -1 -20 1 -15 49 8 97 12 23 45 64 73 91 60 57 143 91 258 103 100 10
93 10 188 -5z m-370 -355 c0 -5 9 -10 20 -10 11 0 20 -4 20 -9 0 -5 8 -11 18
-14 21 -5 38 -65 23 -80 -6 -6 -28 -4 -60 7 -56 18 -83 20 -96 7 -6 -5 -26
-12 -46 -16 -69 -13 -92 46 -38 96 28 26 38 29 95 29 36 0 64 -4 64 -10z m671
-19 c32 -33 37 -62 13 -85 -19 -20 -41 -20 -74 -1 -33 19 -79 19 -123 0 -54
-22 -67 -20 -67 15 0 24 8 35 40 55 22 14 44 25 50 25 5 0 10 5 10 10 0 6 27
10 61 10 54 0 64 -3 90 -29z"/>
<path d="M3182 4682 c-18 -15 -54 -46 -81 -69 -26 -24 -53 -43 -60 -43 -19 0
-12 -34 9 -48 15 -9 31 -10 67 -1 27 6 109 9 188 7 138 -3 140 -3 143 19 2 16
-7 28 -35 47 -21 13 -50 36 -65 50 -15 14 -31 26 -36 26 -5 0 -17 9 -27 20
-25 28 -64 25 -103 -8z"/>
<path d="M3215 3540 c-3 -5 -14 -10 -23 -10 -20 0 -46 -36 -37 -50 8 -13 131
-13 156 0 10 6 19 19 19 30 0 11 -9 24 -19 30 -25 13 -88 13 -96 0z"/>
<path d="M3060 3378 c0 -7 31 -43 69 -80 60 -59 75 -68 106 -68 21 0 55 11 80
26 41 24 115 95 115 112 0 4 -75 5 -166 4 -111 -3 -170 0 -177 7 -15 15 -27
14 -27 -1z"/>
</g>
</svg>
